<svg width="40" height="40" viewBox="0 0 40 40" fill="none" xmlns="http://www.w3.org/2000/svg">
<mask id="mask0_55_931" style="mask-type:alpha" maskUnits="userSpaceOnUse" x="0" y="0" width="40" height="40">
<rect width="40" height="40" fill="#D9D9D9"/>
</mask>
<g mask="url(#mask0_55_931)">
<path d="M19.2594 29.1346C16.8814 28.9316 14.8825 27.9625 13.2628 26.2275C11.643 24.4925 10.8332 22.4167 10.8332 20C10.8332 17.4536 11.7244 15.2893 13.5069 13.5071C15.2891 11.7246 17.4534 10.8334 19.9998 10.8334C22.4165 10.8334 24.4923 11.6406 26.2273 13.255C27.9623 14.8692 28.9314 16.8654 29.1344 19.2438L26.484 18.4584C26.1237 16.9584 25.3478 15.7292 24.1561 14.7709C22.9647 13.8125 21.5793 13.3334 19.9998 13.3334C18.1665 13.3334 16.5971 13.9861 15.2915 15.2917C13.9859 16.5972 13.3332 18.1667 13.3332 20C13.3332 21.5834 13.815 22.9722 14.7786 24.1667C15.7422 25.3611 16.9687 26.1389 18.4582 26.5L19.2594 29.1346ZM21.2594 35.7659C21.0494 35.8109 20.8396 35.8334 20.6298 35.8334H19.9998C17.8096 35.8334 15.7512 35.4178 13.8248 34.5867C11.8984 33.7556 10.2228 32.6277 8.79775 31.2029C7.37275 29.7782 6.2447 28.1028 5.41359 26.1767C4.5822 24.2506 4.1665 22.1927 4.1665 20.0029C4.1665 17.8129 4.58206 15.7545 5.41317 13.8275C6.24428 11.9006 7.3722 10.2245 8.79692 8.79919C10.2216 7.37391 11.8971 6.24544 13.8232 5.41377C15.7493 4.58238 17.8072 4.16669 19.9969 4.16669C22.1869 4.16669 24.2454 4.58238 26.1723 5.41377C28.0993 6.24488 29.7754 7.37294 31.2007 8.79794C32.626 10.2229 33.7544 11.8986 34.5861 13.825C35.4175 15.7514 35.8332 17.8097 35.8332 20V20.6217C35.8332 20.8289 35.8107 21.0363 35.7657 21.2438L33.3332 20.5V20C33.3332 16.2778 32.0415 13.125 29.4582 10.5417C26.8748 7.95835 23.7221 6.66669 19.9998 6.66669C16.2776 6.66669 13.1248 7.95835 10.5415 10.5417C7.95817 13.125 6.6665 16.2778 6.6665 20C6.6665 23.7222 7.95817 26.875 10.5415 29.4584C13.1248 32.0417 16.2776 33.3334 19.9998 33.3334H20.4998L21.2594 35.7659ZM33.5669 36.0738L26.0094 28.5L24.1986 33.9742L19.9998 20L33.974 24.1988L28.4998 26.0096L36.0736 33.5671L33.5669 36.0738Z" fill="white"/>
</g>
</svg>
