<svg width="12" height="12" viewBox="0 0 12 12" fill="none" xmlns="http://www.w3.org/2000/svg">
<path d="M5.80058 2.60571C5.81943 2.35939 6.18057 2.35939 6.19942 2.60571L6.31378 4.1C6.32819 4.28834 6.57161 4.35357 6.67826 4.19766L7.52444 2.96075C7.66393 2.75686 7.97668 2.93743 7.86984 3.16017L7.22174 4.51144C7.14005 4.68176 7.31824 4.85995 7.48856 4.77826L8.83983 4.13016C9.06257 4.02332 9.24314 4.33607 9.03925 4.47556L7.80234 5.32174C7.64643 5.42839 7.71166 5.67181 7.9 5.68622L9.39429 5.80058C9.64061 5.81943 9.64061 6.18057 9.39429 6.19942L7.9 6.31378C7.71166 6.32819 7.64643 6.57161 7.80234 6.67826L9.03925 7.52444C9.24314 7.66393 9.06258 7.97668 8.83983 7.86984L7.48856 7.22174C7.31824 7.14005 7.14005 7.31824 7.22174 7.48856L7.86984 8.83983C7.97668 9.06257 7.66393 9.24314 7.52444 9.03925L6.67826 7.80234C6.57161 7.64643 6.32819 7.71166 6.31378 7.9L6.19942 9.39429C6.18057 9.64061 5.81943 9.64061 5.80058 9.39429L5.68622 7.9C5.67181 7.71166 5.42839 7.64643 5.32174 7.80234L4.47556 9.03925C4.33607 9.24314 4.02332 9.06258 4.13016 8.83983L4.77826 7.48856C4.85995 7.31824 4.68176 7.14005 4.51144 7.22174L3.16017 7.86984C2.93743 7.97668 2.75686 7.66393 2.96075 7.52444L4.19766 6.67826C4.35357 6.57161 4.28834 6.32819 4.1 6.31378L2.60571 6.19942C2.35939 6.18057 2.35939 5.81943 2.60571 5.80058L4.1 5.68622C4.28834 5.67181 4.35357 5.42839 4.19766 5.32174L2.96075 4.47556C2.75686 4.33607 2.93743 4.02332 3.16017 4.13016L4.51144 4.77826C4.68176 4.85995 4.85995 4.68176 4.77826 4.51144L4.13016 3.16017C4.02332 2.93743 4.33607 2.75686 4.47556 2.96075L5.32174 4.19766C5.42839 4.35357 5.67181 4.28834 5.68622 4.1L5.80058 2.60571Z" fill="#BCBCBC" fill-opacity="0.6"/>
</svg>
